<?xml version="1.0" ?><svg viewBox="0 0 64 64" xmlns="http://www.w3.org/2000/svg"><defs><style>.cls-1{fill:#fcb316;}.cls-2{fill:#ffcb29;}.cls-3{fill:#ef5451;}.cls-4{fill:#e53a35;}.cls-5{fill:#455b64;}</style></defs><g id="Icon"><path class="cls-1" d="M60,32A28.02,28.02,0,0,1,34,59.92c-.66.06-1.33.08-2,.08A28,28,0,0,1,32,4c.67,0,1.34.02,2,.08A28.02,28.02,0,0,1,60,32Z"/><ellipse class="cls-2" cx="34" cy="32" rx="26" ry="27.92"/><path class="cls-3" d="M44,38.5a12,12,0,1,1-12-12A12.02,12.02,0,0,1,44,38.5Z"/><path class="cls-4" d="M42.07,45.01a11.98,11.98,0,0,1-20.14,0,11.957,11.957,0,0,1,20.14,0Z"/><path class="cls-5" d="M22,20.5c-2.243,0-4-2.636-4-6a1,1,0,0,1,2,0c0,2.289,1.056,4,2,4s2-1.711,2-4a1,1,0,0,1,2,0C26,17.864,24.243,20.5,22,20.5Z"/><path class="cls-5" d="M42,20.5c-2.243,0-4-2.636-4-6a1,1,0,0,1,2,0c0,2.289,1.056,4,2,4s2-1.711,2-4a1,1,0,0,1,2,0C46,17.864,44.243,20.5,42,20.5Z"/></g></svg>