<?xml version="1.0" ?><svg viewBox="0 0 64 64" xmlns="http://www.w3.org/2000/svg"><defs><style>.cls-1{fill:#fcb316;}.cls-2{fill:#ffcb29;}.cls-3{fill:#455b64;}.cls-4{fill:#ef5451;}.cls-5{fill:#3d82c4;}</style></defs><g id="Icon"><path class="cls-1" d="M60,32A28.02,28.02,0,0,1,34,59.92c-.66.06-1.33.08-2,.08A28,28,0,0,1,32,4c.67,0,1.34.02,2,.08A28.02,28.02,0,0,1,60,32Z"/><ellipse class="cls-2" cx="34" cy="32" rx="26" ry="27.92"/><path class="cls-3" d="M25,22a1,1,0,0,0-1,1c0,2.289-1.056,4-2,4s-2-1.711-2-4a1,1,0,0,0-2,0c0,3.364,1.757,6,4,6s4-2.636,4-6A1,1,0,0,0,25,22Z"/><path class="cls-3" d="M45,22a1,1,0,0,0-1,1c0,2.289-1.056,4-2,4s-2-1.711-2-4a1,1,0,0,0-2,0c0,3.364,1.757,6,4,6s4-2.636,4-6A1,1,0,0,0,45,22Z"/><circle class="cls-4" cx="32" cy="37" r="5"/><path class="cls-5" d="M45,18.057H40.943a1,1,0,0,1-.707-1.707L42.586,14H41a1,1,0,0,1,0-2h4a1,1,0,0,1,.707,1.707l-2.35,2.35H45a1,1,0,0,1,0,2Z"/><path class="cls-5" d="M59,10.057H54.943a1,1,0,0,1-.707-1.707L56.586,6H55a1,1,0,0,1,0-2h4a1,1,0,0,1,.707,1.707l-2.35,2.35H59a1,1,0,0,1,0,2Z"/></g></svg>