<?xml version="1.0" ?><svg viewBox="0 0 64 64" xmlns="http://www.w3.org/2000/svg"><defs><style>.cls-1{fill:#fcb316;}.cls-2{fill:#ffcb29;}.cls-3{fill:#ef5451;}.cls-4{fill:#455b64;}</style></defs><g id="Icon"><circle class="cls-1" cx="32" cy="32" r="28"/><ellipse class="cls-2" cx="34" cy="32" rx="26" ry="27.92"/><path class="cls-3" d="M43.844,37.862a1,1,0,0,0-1.381-.307,19.56,19.56,0,0,1-20.926,0,1,1,0,1,0-1.074,1.687,21.568,21.568,0,0,0,23.074,0A1,1,0,0,0,43.844,37.862Z"/><path class="cls-4" d="M42,21.4c-2.243,0-4,2.636-4,6a1,1,0,0,0,2,0c0-2.289,1.056-4,2-4s2,1.711,2,4a1,1,0,0,0,2,0C46,24.034,44.243,21.4,42,21.4Z"/><path class="cls-4" d="M22,21.4c-2.243,0-4,2.636-4,6a1,1,0,0,0,2,0c0-2.289,1.056-4,2-4s2,1.711,2,4a1,1,0,0,0,2,0C26,24.034,24.243,21.4,22,21.4Z"/></g></svg>