<?xml version="1.0" ?><svg viewBox="0 0 64 64" xmlns="http://www.w3.org/2000/svg"><defs><style>.cls-1{fill:#fcb316;}.cls-2{fill:#ffcb29;}.cls-3{fill:#455b64;}.cls-4{fill:#faa629;}.cls-5{fill:#ef5451;}</style></defs><g id="Icon"><path class="cls-1" d="M60,32A28.02,28.02,0,0,1,34,59.92c-.66.06-1.33.08-2,.08A28,28,0,0,1,32,4c.67,0,1.34.02,2,.08A28.02,28.02,0,0,1,60,32Z"/><ellipse class="cls-2" cx="34" cy="32" rx="26" ry="27.92"/><ellipse class="cls-3" cx="43" cy="28.5" rx="4" ry="6"/><path class="cls-4" d="M46,21.5a1,1,0,0,1-1-1c0-2.29-1.056-4-2-4s-2,1.71-2,4a1,1,0,0,1-2,0c0-3.364,1.757-6,4-6s4,2.636,4,6A1,1,0,0,1,46,21.5Z"/><path class="cls-3" d="M27,27.5v1a8.141,8.141,0,0,1-.06,1c-.3,2.87-1.93,5-3.94,5s-3.64-2.13-3.94-5a8.141,8.141,0,0,1-.06-1v-1Z"/><path class="cls-4" d="M29,28.5a1,1,0,0,1-1,1H18a1,1,0,0,1,0-2H28A1,1,0,0,1,29,28.5Z"/><path class="cls-5" d="M40,43.5H26a1,1,0,0,1,0-2H40a1,1,0,0,1,0,2Z"/></g></svg>