<?xml version="1.0" ?><svg viewBox="0 0 64 64" xmlns="http://www.w3.org/2000/svg"><defs><style>.cls-1{fill:#fcb316;}.cls-2{fill:#ffcb29;}.cls-3{fill:#ef5451;}.cls-4{fill:#fff;}.cls-5{fill:#f47c20;}</style></defs><g id="Icon"><path class="cls-1" d="M60,32A28.02,28.02,0,0,1,34,59.92c-.66.06-1.33.08-2,.08A28,28,0,0,1,32,4c.67,0,1.34.02,2,.08A28.02,28.02,0,0,1,60,32Z"/><ellipse class="cls-2" cx="34" cy="32" rx="26" ry="27.92"/><path class="cls-3" d="M43,37.99c0,5.6-4.01,8.82-11,8.82s-11-3.22-11-8.82A5.283,5.283,0,0,1,22.31,34c1.487-1.442,3.789-1.258,6.47-1.07a46.138,46.138,0,0,0,6.44,0c2.691-.188,4.982-.363,6.47,1.07A5.283,5.283,0,0,1,43,37.99Z"/><path class="cls-4" d="M41.69,34c-.87,3.36-3.42,5.81-6.42,5.81H28.73c-3,0-5.55-2.45-6.42-5.81,1.487-1.442,3.789-1.258,6.47-1.07a46.138,46.138,0,0,0,6.44,0C37.911,32.742,40.2,32.567,41.69,34Z"/><path class="cls-5" d="M47.951,21.651a1.973,1.973,0,0,0-1.862-1.4l-1.653-.039-.443-1.561A1.989,1.989,0,0,0,42.117,17.2a1.96,1.96,0,0,0-1.944,1.365L39.658,20.1l-1.653-.039a1.94,1.94,0,0,0-1.926,1.315,1.973,1.973,0,0,0,.629,2.245l1.4,1.118-.562,1.679a2,2,0,0,0,3.073,2.252l1.254-.913,1.211.971a2,2,0,0,0,3.175-2.107l-.483-1.7,1.447-1.052A1.973,1.973,0,0,0,47.951,21.651Z"/><path class="cls-5" d="M26.089,20.249l-1.653-.039-.443-1.561A1.989,1.989,0,0,0,22.117,17.2a1.956,1.956,0,0,0-1.944,1.365L19.658,20.1l-1.653-.039a1.932,1.932,0,0,0-1.926,1.315,1.973,1.973,0,0,0,.629,2.245l1.4,1.118-.562,1.679a2,2,0,0,0,3.073,2.252l1.254-.913,1.211.971a2,2,0,0,0,3.175-2.107l-.483-1.7,1.447-1.052a2,2,0,0,0-1.13-3.616Z"/></g></svg>