<?xml version="1.0" ?><svg viewBox="0 0 64 64" xmlns="http://www.w3.org/2000/svg"><defs><style>.cls-1{fill:#fcb316;}.cls-2{fill:#ffcb29;}.cls-3{fill:#ef5451;}.cls-4{fill:#455b64;}.cls-5{fill:#faa629;}</style></defs><g id="Icon"><path class="cls-1" d="M60,32A28.02,28.02,0,0,1,34,59.92c-.66.06-1.33.08-2,.08A28,28,0,0,1,32,4c.67,0,1.34.02,2,.08A28.02,28.02,0,0,1,60,32Z"/><ellipse class="cls-2" cx="34" cy="32" rx="26" ry="27.92"/><path class="cls-3" d="M21,45.6a1,1,0,0,1-.538-1.844,21.572,21.572,0,0,1,23.074,0,1,1,0,1,1-1.074,1.687,19.56,19.56,0,0,0-20.926,0A.993.993,0,0,1,21,45.6Z"/><ellipse class="cls-4" cx="42" cy="30.398" rx="4" ry="6"/><ellipse class="cls-4" cx="22" cy="30.398" rx="4" ry="6"/><path class="cls-5" d="M41.707,18.691a1,1,0,0,0-1.414,0l-3,3a1,1,0,0,0,1.414,1.414l3-3A1,1,0,0,0,41.707,18.691Z"/><path class="cls-5" d="M26.707,21.691l-3-3a1,1,0,0,0-1.414,1.414l3,3a1,1,0,0,0,1.414-1.414Z"/></g></svg>