<?xml version="1.0" ?><svg viewBox="0 0 64 64" xmlns="http://www.w3.org/2000/svg"><defs><style>.cls-1{fill:#fcb316;}.cls-2{fill:#ffcb29;}.cls-3{fill:#ef5451;}.cls-4{fill:#fff;}.cls-5{fill:#e53a35;}</style></defs><g id="Icon"><path class="cls-1" d="M60,32A28.02,28.02,0,0,1,34,59.92c-.66.06-1.33.08-2,.08A28,28,0,0,1,32,4c.67,0,1.34.02,2,.08A28.02,28.02,0,0,1,60,32Z"/><ellipse class="cls-2" cx="34" cy="32" rx="26" ry="27.92"/><path class="cls-3" d="M43,38.26c0,5.6-4.01,8.81-11,8.81s-11-3.21-11-8.81a5.308,5.308,0,0,1,1.31-4c1.487-1.433,3.79-1.248,6.47-1.06a46.138,46.138,0,0,0,6.44,0c2.691-.188,4.983-.373,6.47,1.06A5.308,5.308,0,0,1,43,38.26Z"/><path class="cls-4" d="M41.69,34.26c-.87,3.36-3.42,5.81-6.42,5.81H28.73c-3,0-5.55-2.45-6.42-5.81,1.487-1.433,3.79-1.248,6.47-1.06a46.138,46.138,0,0,0,6.44,0C37.911,33.012,40.2,32.827,41.69,34.26Z"/><path class="cls-5" d="M24.5,16.931a4.506,4.506,0,0,0-2.5.749,4.535,4.535,0,0,0-7.032,3.785c0,5.45,6.361,8.293,6.632,8.412a1.005,1.005,0,0,0,.8,0c.271-.119,6.632-2.962,6.632-8.412A4.538,4.538,0,0,0,24.5,16.931Z"/><path class="cls-5" d="M44.5,16.931a4.506,4.506,0,0,0-2.5.749,4.535,4.535,0,0,0-7.032,3.785c0,5.45,6.361,8.293,6.632,8.412a1.005,1.005,0,0,0,.8,0c.271-.119,6.632-2.962,6.632-8.412A4.538,4.538,0,0,0,44.5,16.931Z"/></g></svg>