<?xml version="1.0" ?><svg viewBox="0 0 64 64" xmlns="http://www.w3.org/2000/svg"><defs><style>.cls-1{fill:#fcb316;}.cls-2{fill:#ffcb29;}.cls-3{fill:#455b64;}.cls-4{fill:#faa629;}.cls-5{fill:#ef5451;}</style></defs><g id="Icon"><path class="cls-1" d="M60,32A28.02,28.02,0,0,1,34,59.92c-.66.06-1.33.08-2,.08A28,28,0,0,1,32,4c.67,0,1.34.02,2,.08A28.02,28.02,0,0,1,60,32Z"/><ellipse class="cls-2" cx="34" cy="32" rx="26" ry="27.92"/><path class="cls-3" d="M22,32.5c-2.243,0-4-2.636-4-6a1,1,0,0,1,2,0c0,2.289,1.056,4,2,4s2-1.711,2-4a1,1,0,0,1,2,0C26,29.864,24.243,32.5,22,32.5Z"/><path class="cls-3" d="M42,32.5c-2.243,0-4-2.636-4-6a1,1,0,0,1,2,0c0,2.289,1.056,4,2,4s2-1.711,2-4a1,1,0,0,1,2,0C46,29.864,44.243,32.5,42,32.5Z"/><path class="cls-4" d="M45,23.5a5.006,5.006,0,0,1-5-5,1,1,0,0,1,2,0,3,3,0,0,0,3,3,1,1,0,0,1,0,2Z"/><path class="cls-4" d="M19,23.5a1,1,0,0,1,0-2,3,3,0,0,0,3-3,1,1,0,0,1,2,0A5.006,5.006,0,0,1,19,23.5Z"/><path class="cls-5" d="M35,46.5a3.99,3.99,0,0,1-3-1.357A4,4,0,1,1,29,38.5a1,1,0,0,1,0,2,2,2,0,1,0,2,2,1,1,0,0,1,2,0,2,2,0,1,0,2-2,1,1,0,0,1,0-2,4,4,0,0,1,0,8Z"/></g></svg>