<?xml version="1.0" ?><svg viewBox="0 0 64 64" xmlns="http://www.w3.org/2000/svg"><defs><style>.cls-1{fill:#fcb316;}.cls-2{fill:#ffcb29;}.cls-3{fill:#455b64;}.cls-4{fill:#faa629;}.cls-5{fill:#ef5451;}.cls-6{fill:#fff;}</style></defs><g id="Icon"><path class="cls-1" d="M60,32A28.02,28.02,0,0,1,34,59.92c-.66.06-1.33.08-2,.08A28,28,0,0,1,32,4c.67,0,1.34.02,2,.08A28.02,28.02,0,0,1,60,32Z"/><ellipse class="cls-2" cx="34" cy="32" rx="26" ry="27.92"/><ellipse class="cls-3" cx="42" cy="26.737" rx="4" ry="6"/><ellipse class="cls-3" cx="22" cy="26.737" rx="4" ry="6"/><path class="cls-4" d="M41.707,15.03a1,1,0,0,0-1.414,0l-3,3a1,1,0,1,0,1.414,1.414l3-3A1,1,0,0,0,41.707,15.03Z"/><path class="cls-4" d="M26.707,18.03l-3-3a1,1,0,1,0-1.414,1.414l3,3a1,1,0,1,0,1.414-1.414Z"/><path class="cls-5" d="M43,44.07a5.266,5.266,0,0,1-1.36,4.05c-1.583,1.486-4.242,1.15-6.42,1.01a46.138,46.138,0,0,0-6.44,0c-2.66.2-4.94.36-6.42-1.01A5.266,5.266,0,0,1,21,44.07a8.345,8.345,0,0,1,1.65-5.26c1.79-2.3,4.99-3.55,9.35-3.55s7.56,1.25,9.35,3.55A8.345,8.345,0,0,1,43,44.07Z"/><path class="cls-6" d="M41.35,38.81c-1.07,2.82-3.39,4.78-6.08,4.78H28.73c-2.69,0-5.01-1.96-6.08-4.78,1.79-2.3,4.99-3.55,9.35-3.55S39.56,36.51,41.35,38.81Z"/></g></svg>