<?xml version="1.0" ?><svg viewBox="0 0 64 64" xmlns="http://www.w3.org/2000/svg"><defs><style>.cls-1{fill:#fcb316;}.cls-2{fill:#ffcb29;}.cls-3{fill:#455b64;}.cls-4{fill:#faa629;}.cls-5{fill:#ef5451;}</style></defs><g id="Icon"><path class="cls-1" d="M60,32A28.02,28.02,0,0,1,34,59.92c-.66.06-1.33.08-2,.08A28,28,0,0,1,32,4c.67,0,1.34.02,2,.08A28.02,28.02,0,0,1,60,32Z"/><ellipse class="cls-2" cx="34" cy="32" rx="26" ry="27.92"/><ellipse class="cls-3" cx="42" cy="29.898" rx="4" ry="6"/><ellipse class="cls-3" cx="22" cy="29.898" rx="4" ry="6"/><path class="cls-4" d="M45,21.5a5.006,5.006,0,0,1-5-5,1,1,0,0,1,2,0,3,3,0,0,0,3,3,1,1,0,0,1,0,2Z"/><path class="cls-4" d="M19,21.5a1,1,0,0,1,0-2,3,3,0,0,0,3-3,1,1,0,0,1,2,0A5.006,5.006,0,0,1,19,21.5Z"/><path class="cls-5" d="M39,44.5H25a1,1,0,0,1,0-2H39a1,1,0,0,1,0,2Z"/><path class="cls-4" d="M40.9,39.947a1,1,0,0,0-1.79-.894,9.993,9.993,0,0,0,0,8.894,1,1,0,0,0,1.79-.894A7.979,7.979,0,0,1,40.9,39.947Z"/><path class="cls-4" d="M24.9,39.053a1,1,0,1,0-1.79.894,7.979,7.979,0,0,1,0,7.106,1,1,0,1,0,1.79.894A9.993,9.993,0,0,0,24.9,39.053Z"/></g></svg>