<?xml version="1.0" ?><svg viewBox="0 0 64 64" xmlns="http://www.w3.org/2000/svg"><defs><style>.cls-1{fill:#fcb316;}.cls-2{fill:#ffcb29;}.cls-3{fill:#ef5451;}.cls-4{fill:#455b64;}.cls-5{fill:#faa629;}</style></defs><g id="Icon"><path class="cls-1" d="M60,32A28.02,28.02,0,0,1,34,59.92c-.66.06-1.33.08-2,.08A28,28,0,0,1,32,4c.67,0,1.34.02,2,.08A28.02,28.02,0,0,1,60,32Z"/><ellipse class="cls-2" cx="34" cy="32" rx="26" ry="27.92"/><path class="cls-3" d="M43,44.6a1,1,0,0,1-.536-.157,19.56,19.56,0,0,0-20.926,0,1,1,0,1,1-1.074-1.687,21.572,21.572,0,0,1,23.074,0A1,1,0,0,1,43,44.6Z"/><path class="cls-4" d="M25,27.4a1,1,0,0,0-1,1c0,2.29-1.056,4-2,4s-2-1.71-2-4a1,1,0,1,0-2,0c0,3.365,1.757,6,4,6s4-2.635,4-6A1,1,0,0,0,25,27.4Z"/><path class="cls-4" d="M45,27.4a1,1,0,0,0-1,1c0,2.29-1.056,4-2,4s-2-1.71-2-4a1,1,0,1,0-2,0c0,3.365,1.757,6,4,6s4-2.635,4-6A1,1,0,0,0,45,27.4Z"/><path class="cls-5" d="M45,25.4a5.006,5.006,0,0,1-5-5,1,1,0,1,1,2,0,3,3,0,0,0,3,3,1,1,0,0,1,0,2Z"/><path class="cls-5" d="M19,25.4a1,1,0,0,1,0-2,3,3,0,0,0,3-3,1,1,0,1,1,2,0A5.006,5.006,0,0,1,19,25.4Z"/></g></svg>