<?xml version="1.0" ?><svg viewBox="0 0 64 64" xmlns="http://www.w3.org/2000/svg"><defs><style>.cls-1{fill:#fcb316;}.cls-2{fill:#ffcb29;}.cls-3{fill:#455b64;}.cls-4{fill:#ef5451;}</style></defs><g id="Icon"><path class="cls-1" d="M60,32A28.02,28.02,0,0,1,34,59.92c-.66.06-1.33.08-2,.08A28,28,0,0,1,32,4c.67,0,1.34.02,2,.08A28.02,28.02,0,0,1,60,32Z"/><ellipse class="cls-2" cx="34" cy="32" rx="26" ry="27.92"/><ellipse class="cls-3" cx="42" cy="25.732" rx="4" ry="6"/><ellipse class="cls-3" cx="22" cy="25.732" rx="4" ry="6"/><path class="cls-4" d="M33.414,39.732,36.243,36.9a1,1,0,0,0-1.414-1.414L32,38.318l-2.829-2.829A1,1,0,1,0,27.757,36.9l2.829,2.829-2.829,2.829a1,1,0,1,0,1.414,1.414L32,41.146l2.829,2.829a1,1,0,0,0,1.414-1.414Z"/></g></svg>