<?xml version="1.0" ?><svg viewBox="0 0 64 64" xmlns="http://www.w3.org/2000/svg"><defs><style>.cls-1{fill:#fcb316;}.cls-2{fill:#ffcb29;}.cls-3{fill:#455b64;}.cls-4{fill:#fff;}.cls-5{fill:#cfd8dc;}</style></defs><g id="Icon"><path class="cls-1" d="M60,32A28.02,28.02,0,0,1,34,59.92c-.66.06-1.33.08-2,.08A28,28,0,0,1,32,4c.67,0,1.34.02,2,.08A28.02,28.02,0,0,1,60,32Z"/><ellipse class="cls-2" cx="34" cy="32" rx="26" ry="27.92"/><ellipse class="cls-3" cx="42" cy="25.5" rx="4" ry="6"/><ellipse class="cls-3" cx="22" cy="25.5" rx="4" ry="6"/><path class="cls-4" d="M43,39.5a4.712,4.712,0,0,1-.1,1,5,5,0,0,1-4.9,4H26a5,5,0,0,1-4.9-4,5.05,5.05,0,0,1,0-2,5,5,0,0,1,4.9-4H38a5,5,0,0,1,4.9,4A4.712,4.712,0,0,1,43,39.5Z"/><path class="cls-5" d="M43,39.5a4.712,4.712,0,0,1-.1,1H21.1a5.05,5.05,0,0,1,0-2H42.9A4.712,4.712,0,0,1,43,39.5Z"/></g></svg>