<?xml version="1.0" ?><svg viewBox="0 0 64 64" xmlns="http://www.w3.org/2000/svg"><defs><style>.cls-1{fill:#fcb316;}.cls-2{fill:#ffcb29;}.cls-3{fill:#455b64;}.cls-4{fill:#e53a35;}.cls-5{fill:#ef9a9b;}.cls-6{fill:#ef5451;}</style></defs><g id="Icon"><path class="cls-1" d="M60,32A28.02,28.02,0,0,1,34,59.92c-.66.06-1.33.08-2,.08A28,28,0,0,1,32,4c.67,0,1.34.02,2,.08A28.02,28.02,0,0,1,60,32Z"/><ellipse class="cls-2" cx="34" cy="32" rx="26" ry="27.92"/><path class="cls-3" d="M45,24a1,1,0,0,1-1-1c0-2.289-1.056-4-2-4s-2,1.711-2,4a1,1,0,0,1-2,0c0-3.364,1.757-6,4-6s4,2.636,4,6A1,1,0,0,1,45,24Z"/><path class="cls-3" d="M25,24a1,1,0,0,1-1-1c0-2.289-1.056-4-2-4s-2,1.711-2,4a1,1,0,0,1-2,0c0-3.364,1.757-6,4-6s4,2.636,4,6A1,1,0,0,1,25,24Z"/><path class="cls-4" d="M37,32H27a1,1,0,0,0-1,1v8a6,6,0,0,0,12,0V33A1,1,0,0,0,37,32Z"/><path class="cls-5" d="M32,41a1,1,0,0,1-1-1V33a1,1,0,0,1,2,0v7A1,1,0,0,1,32,41Z"/><path class="cls-6" d="M39,34H25a1,1,0,0,1,0-2H39a1,1,0,0,1,0,2Z"/></g></svg>