<?xml version="1.0" ?><svg viewBox="0 0 64 64" xmlns="http://www.w3.org/2000/svg"><defs><style>.cls-1{fill:#fcb316;}.cls-2{fill:#ffcb29;}.cls-3{fill:#455b64;}.cls-4{fill:#ef5451;}.cls-5{fill:#e53a35;}</style></defs><g id="Icon"><path class="cls-1" d="M60,32A28.02,28.02,0,0,1,34,59.92c-.66.06-1.33.08-2,.08A28,28,0,0,1,32,4c.67,0,1.34.02,2,.08A28.02,28.02,0,0,1,60,32Z"/><ellipse class="cls-2" cx="34" cy="32" rx="26" ry="27.92"/><path class="cls-3" d="M42,18c-2.243,0-4,2.636-4,6a1,1,0,0,0,2,0c0-2.29,1.056-4,2-4s2,1.71,2,4a1,1,0,0,0,2,0C46,20.636,44.243,18,42,18Z"/><ellipse class="cls-3" cx="22" cy="24" rx="4" ry="6"/><path class="cls-4" d="M35,46a4,4,0,0,1-4-4,1,1,0,0,1,2,0,2,2,0,1,0,2-2,1,1,0,0,1,0-2,2,2,0,1,0-2-2,1,1,0,0,1-2,0,4,4,0,1,1,6.643,3A4,4,0,0,1,35,46Z"/><path class="cls-5" d="M49.071,33.806A3.9,3.9,0,0,0,47,34.4a3.93,3.93,0,0,0-6,3.34c0,4.628,5.371,7.03,5.6,7.129a.994.994,0,0,0,.8,0c.229-.1,5.6-2.5,5.6-7.129A3.933,3.933,0,0,0,49.071,33.806Z"/></g></svg>