<?xml version="1.0" ?><svg viewBox="0 0 64 64" xmlns="http://www.w3.org/2000/svg"><defs><style>.cls-1{fill:#fcb316;}.cls-2{fill:#ffcb29;}.cls-3{fill:#ef5451;}.cls-4{fill:#e53a35;}.cls-5{fill:#455b64;}.cls-6{fill:#3d82c4;}</style></defs><g id="Icon"><path class="cls-1" d="M60,32A28.02,28.02,0,0,1,34,59.92c-.66.06-1.33.08-2,.08A28,28,0,0,1,32,4c.67,0,1.34.02,2,.08A28.02,28.02,0,0,1,60,32Z"/><ellipse class="cls-2" cx="34" cy="32" rx="26" ry="27.92"/><path class="cls-3" d="M43,35.11a8.345,8.345,0,0,1-1.65,5.26c-1.79,2.3-4.99,3.55-9.35,3.55s-7.56-1.25-9.35-3.55A8.345,8.345,0,0,1,21,35.11a5.3,5.3,0,0,1,1.36-4.05c1.48-1.37,3.77-1.2,6.42-1.01a46.138,46.138,0,0,0,6.44,0c2.66-.19,4.94-.36,6.42,1.01A5.3,5.3,0,0,1,43,35.11Z"/><path class="cls-4" d="M41.35,40.37c-1.79,2.3-4.99,3.55-9.35,3.55s-7.56-1.25-9.35-3.55c1.07-2.82,3.4-4.77,6.08-4.77h6.54C37.95,35.6,40.28,37.55,41.35,40.37Z"/><path class="cls-5" d="M47,19H37a1,1,0,0,0,0,2h2.184A2.966,2.966,0,0,0,39,22a3,3,0,0,0,6,0,2.966,2.966,0,0,0-.184-1H47a1,1,0,0,0,0-2Z"/><path class="cls-5" d="M27,19H17a1,1,0,0,0,0,2h2.184A2.966,2.966,0,0,0,19,22a3,3,0,0,0,6,0,2.966,2.966,0,0,0-.184-1H27a1,1,0,0,0,0-2Z"/><path class="cls-6" d="M40,42.551c-2.633,0-3.816,5.272-3.816,6.633a3.816,3.816,0,0,0,7.632,0C43.816,47.823,42.633,42.551,40,42.551Z"/></g></svg>