<?xml version="1.0" ?><svg viewBox="0 0 64 64" xmlns="http://www.w3.org/2000/svg"><defs><style>.cls-1{fill:#fcb316;}.cls-2{fill:#ffcb29;}.cls-3{fill:#ef5451;}.cls-4{fill:#fff;}.cls-5{fill:#455b64;}</style></defs><g id="Icon"><circle class="cls-1" cx="32" cy="32" r="28"/><ellipse class="cls-2" cx="34" cy="32" rx="26" ry="27.92"/><path class="cls-3" d="M43,36.69c0,5.6-4.01,8.81-11,8.81s-11-3.21-11-8.81a5.261,5.261,0,0,1,1.36-4.05c1.48-1.37,3.77-1.2,6.42-1.01a46.138,46.138,0,0,0,6.44,0c2.65-.19,4.94-.36,6.42,1.01A5.257,5.257,0,0,1,43,36.69Z"/><path class="cls-4" d="M41.69,32.69c-.87,3.37-3.42,5.81-6.42,5.81H28.73c-3,0-5.55-2.44-6.42-5.81,1.487-1.433,3.79-1.248,6.47-1.06a46.138,46.138,0,0,0,6.44,0C37.9,31.442,40.2,31.257,41.69,32.69Z"/><ellipse class="cls-5" cx="42" cy="24.5" rx="4" ry="6"/><ellipse class="cls-5" cx="22" cy="24.5" rx="4" ry="6"/></g></svg>