<?xml version="1.0" ?><svg viewBox="0 0 64 64" xmlns="http://www.w3.org/2000/svg"><defs><style>.cls-1{fill:#fcb316;}.cls-2{fill:#ffcb29;}.cls-3{fill:#ef5451;}.cls-4{fill:#455b64;}</style></defs><g id="Icon"><path class="cls-1" d="M60,32A28.02,28.02,0,0,1,34,59.92c-.66.06-1.33.08-2,.08A28,28,0,0,1,32,4c.67,0,1.34.02,2,.08A28.02,28.02,0,0,1,60,32Z"/><ellipse class="cls-2" cx="34" cy="32" rx="26" ry="27.92"/><path class="cls-3" d="M43.537,24.758a21.568,21.568,0,0,0-23.074,0,1,1,0,1,0,1.074,1.687,19.56,19.56,0,0,1,20.926,0,1,1,0,1,0,1.074-1.687Z"/><ellipse class="cls-4" cx="22" cy="36.602" rx="4" ry="6"/><ellipse class="cls-4" cx="42" cy="36.602" rx="4" ry="6"/></g></svg>