<?xml version="1.0" ?><svg viewBox="0 0 64 64" xmlns="http://www.w3.org/2000/svg"><defs><style>.cls-1{fill:#ef5451;}.cls-2{fill:#455b64;}.cls-3{fill:#faa629;}.cls-4{fill:#3d82c4;}.cls-5{fill:#fcb316;}.cls-6{fill:#ffcb29;}.cls-7{fill:#fff;}</style></defs><g id="Icon"><path class="cls-1" d="M43.844,39.861a1,1,0,0,0-1.381-.306,19.562,19.562,0,0,1-20.926,0,1,1,0,1,0-1.074,1.687,21.568,21.568,0,0,0,23.074,0A1,1,0,0,0,43.844,39.861Z"/><path class="cls-2" d="M25,27.4a1,1,0,0,0-1,1c0,2.29-1.056,4-2,4s-2-1.71-2-4a1,1,0,1,0-2,0c0,3.365,1.757,6,4,6s4-2.635,4-6A1,1,0,0,0,25,27.4Z"/><path class="cls-2" d="M45,27.4a1,1,0,0,0-1,1c0,2.29-1.056,4-2,4s-2-1.71-2-4a1,1,0,1,0-2,0c0,3.365,1.757,6,4,6s4-2.635,4-6A1,1,0,0,0,45,27.4Z"/><path class="cls-3" d="M45,23.4a3,3,0,0,1-3-3,1,1,0,1,0-2,0,5.006,5.006,0,0,0,5,5,1,1,0,0,0,0-2Z"/><path class="cls-3" d="M23,19.4a1,1,0,0,0-1,1,3,3,0,0,1-3,3,1,1,0,0,0,0,2,5.006,5.006,0,0,0,5-5A1,1,0,0,0,23,19.4Z"/><path class="cls-4" d="M11,7c-3.227,0-5,6.76-5,9a5,5,0,0,0,10,0C16,13.76,14.227,7,11,7Z"/><path class="cls-5" d="M60,32A28.02,28.02,0,0,1,34,59.92c-.66.06-1.33.08-2,.08A28.007,28.007,0,0,1,7.47,18.49a1,1,0,0,1,1.54-.26A2.994,2.994,0,0,0,11,19a1.477,1.477,0,0,0,.21-.01A3.007,3.007,0,0,0,14,16a13,13,0,0,0-.86-3.84,1.014,1.014,0,0,1,.28-1.1c.35-.31.7-.61,1.06-.89.13-.11.27-.22.41-.32A27.868,27.868,0,0,1,32,4c.68,0,1.35.02,2.01.08A28.025,28.025,0,0,1,60,32Z"/><path class="cls-6" d="M60,32A28.02,28.02,0,0,1,34,59.92,27.986,27.986,0,0,1,11.21,18.99c.08-.17.17-.33.26-.5a.994.994,0,0,1,.71-.5.976.976,0,0,1,.82.24h.01A2.988,2.988,0,0,0,18,16a13,13,0,0,0-.86-3.84,1.014,1.014,0,0,1,.28-1.1A27.868,27.868,0,0,1,34.01,4.08,28.025,28.025,0,0,1,60,32Z"/><path class="cls-1" d="M43,36.69c0,5.6-4.01,8.81-11,8.81s-11-3.21-11-8.81a5.308,5.308,0,0,1,1.31-4c1.487-1.433,3.79-1.248,6.47-1.06a46.138,46.138,0,0,0,6.44,0c2.691-.188,4.982-.373,6.47,1.06A5.308,5.308,0,0,1,43,36.69Z"/><path class="cls-7" d="M41.69,32.69c-.87,3.37-3.42,5.81-6.42,5.81H28.73c-3,0-5.55-2.44-6.42-5.81,1.487-1.433,3.79-1.248,6.47-1.06a46.138,46.138,0,0,0,6.44,0C37.911,31.442,40.2,31.257,41.69,32.69Z"/><path class="cls-2" d="M45,25.5a1,1,0,0,1-1-1c0-2.29-1.056-4-2-4s-2,1.71-2,4a1,1,0,0,1-2,0c0-3.364,1.757-6,4-6s4,2.636,4,6A1,1,0,0,1,45,25.5Z"/><path class="cls-2" d="M25,25.5a1,1,0,0,1-1-1c0-2.29-1.056-4-2-4s-2,1.71-2,4a1,1,0,0,1-2,0c0-3.364,1.757-6,4-6s4,2.636,4,6A1,1,0,0,1,25,25.5Z"/><path class="cls-4" d="M16,16a5,5,0,0,1-5,5,5.013,5.013,0,0,1-5-5c0-2.24,1.77-9,5-9,1.2,0,2.2.93,2.97,2.22a11.172,11.172,0,0,1,.91,1.87A15.408,15.408,0,0,1,16,16Z"/><path class="cls-5" d="M17,18a5,5,0,0,1-5,5,5,5,0,0,1-4.86-3.83A5,5,0,0,0,16,16a15.408,15.408,0,0,0-1.12-4.91,1.463,1.463,0,0,1,.09.13A15.794,15.794,0,0,1,17,18Z"/></g></svg>