<?xml version="1.0" ?><svg viewBox="0 0 64 64" xmlns="http://www.w3.org/2000/svg"><defs><style>.cls-1{fill:#fcb316;}.cls-2{fill:#ffcb29;}.cls-3{fill:#ef5451;}.cls-4{fill:#455b64;}.cls-5{fill:#3d82c4;}.cls-6{fill:#faa629;}.cls-7{fill:#fff;}</style></defs><g id="Icon"><path class="cls-1" d="M60,32A28.02,28.02,0,0,1,34,59.92c-.66.06-1.33.08-2,.08A28,28,0,0,1,32,4c.67,0,1.34.02,2,.08A28.02,28.02,0,0,1,60,32Z"/><ellipse class="cls-2" cx="34" cy="32" rx="26" ry="27.92"/><path class="cls-3" d="M43,42.9a5.3,5.3,0,0,1-1.36,4.05,5.407,5.407,0,0,1-3.85,1.14c-.8,0-1.67-.07-2.57-.13a46.138,46.138,0,0,0-6.44,0c-2.66.19-4.94.36-6.42-1.01A5.3,5.3,0,0,1,21,42.9a8.345,8.345,0,0,1,1.65-5.26c1.79-2.3,4.99-3.55,9.35-3.55s7.56,1.25,9.35,3.55A8.345,8.345,0,0,1,43,42.9Z"/><path class="cls-4" d="M45,30.413a1,1,0,0,1-1-1c0-2.289-1.056-4-2-4s-2,1.711-2,4a1,1,0,0,1-2,0c0-3.364,1.757-6,4-6s4,2.636,4,6A1,1,0,0,1,45,30.413Z"/><path class="cls-4" d="M25,30.413a1,1,0,0,1-1-1c0-2.289-1.056-4-2-4s-2,1.711-2,4a1,1,0,0,1-2,0c0-3.364,1.757-6,4-6s4,2.636,4,6A1,1,0,0,1,25,30.413Z"/><path class="cls-5" d="M17.534,30.371c-2.785-1.631-7.729,3.311-8.86,5.244a5,5,0,0,0,8.633,5.049C18.608,38.545,20.143,31.671,17.534,30.371Z"/><path class="cls-5" d="M55.326,35.615c-1.132-1.933-6.076-6.873-8.86-5.244-2.609,1.3-1.074,8.172.227,10.293a5,5,0,1,0,8.633-5.049Z"/><path class="cls-6" d="M45,21.913a5.006,5.006,0,0,1-5-5,1,1,0,1,1,2,0,3,3,0,0,0,3,3,1,1,0,0,1,0,2Z"/><path class="cls-6" d="M19,21.913a1,1,0,0,1,0-2,3,3,0,0,0,3-3,1,1,0,1,1,2,0A5.006,5.006,0,0,1,19,21.913Z"/><path class="cls-7" d="M41.35,37.64c-1.08,2.82-3.4,4.77-6.08,4.77H28.73c-2.68,0-5-1.95-6.08-4.77,1.79-2.3,4.99-3.55,9.35-3.55S39.56,35.34,41.35,37.64Z"/></g></svg>