<?xml version="1.0" ?><svg viewBox="0 0 64 64" xmlns="http://www.w3.org/2000/svg"><defs><style>.cls-1{fill:#fcb316;}.cls-2{fill:#ffcb29;}.cls-3{fill:#ef5451;}.cls-4{fill:#fff;}.cls-5{fill:#455b64;}</style></defs><g id="Icon"><circle class="cls-1" cx="32" cy="32" r="28"/><ellipse class="cls-2" cx="34" cy="32" rx="26" ry="27.92"/><path class="cls-3" d="M43,36.69c0,5.6-4.01,8.81-11,8.81s-11-3.21-11-8.81a5.308,5.308,0,0,1,1.31-4c1.487-1.433,3.79-1.248,6.47-1.06a46.138,46.138,0,0,0,6.44,0c2.681-.188,4.983-.373,6.47,1.06A5.308,5.308,0,0,1,43,36.69Z"/><path class="cls-4" d="M41.69,32.69c-.87,3.37-3.42,5.81-6.42,5.81H28.73c-3,0-5.55-2.44-6.42-5.81,1.487-1.433,3.79-1.248,6.47-1.06a46.138,46.138,0,0,0,6.44,0C37.9,31.442,40.2,31.257,41.69,32.69Z"/><path class="cls-5" d="M45,25.5a1,1,0,0,1-1-1c0-2.29-1.056-4-2-4s-2,1.71-2,4a1,1,0,0,1-2,0c0-3.364,1.757-6,4-6s4,2.636,4,6A1,1,0,0,1,45,25.5Z"/><path class="cls-5" d="M25,25.5a1,1,0,0,1-1-1c0-2.29-1.056-4-2-4s-2,1.71-2,4a1,1,0,0,1-2,0c0-3.364,1.757-6,4-6s4,2.636,4,6A1,1,0,0,1,25,25.5Z"/></g></svg>