<?xml version="1.0" ?><svg viewBox="0 0 64 64" xmlns="http://www.w3.org/2000/svg"><defs><style>.cls-1{fill:#fcb316;}.cls-2{fill:#ffcb29;}.cls-3{fill:#ef5451;}.cls-4{fill:#455b64;}.cls-5{fill:#faa629;}</style></defs><g id="Icon"><path class="cls-1" d="M60,32A28.02,28.02,0,0,1,34,59.92c-.66.06-1.33.08-2,.08A28,28,0,0,1,32,4c.67,0,1.34.02,2,.08A28.02,28.02,0,0,1,60,32Z"/><ellipse class="cls-2" cx="34" cy="32" rx="26" ry="27.92"/><path class="cls-3" d="M37,45a1,1,0,0,1-.624-.219,6.964,6.964,0,0,0-8.75,0,1,1,0,0,1-1.25-1.562,8.956,8.956,0,0,1,11.25,0A1,1,0,0,1,37,45Z"/><path class="cls-4" d="M47,28H37a1,1,0,0,0,0,2h2.184A2.966,2.966,0,0,0,39,31a3,3,0,0,0,6,0,2.966,2.966,0,0,0-.184-1H47a1,1,0,0,0,0-2Z"/><path class="cls-4" d="M27,28H17a1,1,0,0,0,0,2h2.184A2.966,2.966,0,0,0,19,31a3,3,0,0,0,6,0,2.966,2.966,0,0,0-.184-1H27a1,1,0,0,0,0-2Z"/><path class="cls-5" d="M45,26a1,1,0,0,1-1-1c0-2.29-1.056-4-2-4s-2,1.71-2,4a1,1,0,0,1-2,0c0-3.364,1.757-6,4-6s4,2.636,4,6A1,1,0,0,1,45,26Z"/><path class="cls-5" d="M25,26a1,1,0,0,1-1-1c0-2.29-1.056-4-2-4s-2,1.71-2,4a1,1,0,0,1-2,0c0-3.364,1.757-6,4-6s4,2.636,4,6A1,1,0,0,1,25,26Z"/></g></svg>