<?xml version="1.0" ?><svg viewBox="0 0 64 64" xmlns="http://www.w3.org/2000/svg"><defs><style>.cls-1{fill:#fcb316;}.cls-2{fill:#ffcb29;}.cls-3{fill:#ef5451;}.cls-4{fill:#455b64;}.cls-5{fill:#faa629;}.cls-6{fill:#3d82c4;}</style></defs><g id="Icon"><path class="cls-1" d="M60,32A28.02,28.02,0,0,1,34,59.92c-.66.06-1.33.08-2,.08A28,28,0,0,1,32,4c.67,0,1.34.02,2,.08A28.02,28.02,0,0,1,60,32Z"/><ellipse class="cls-2" cx="34" cy="32" rx="26" ry="27.92"/><path class="cls-3" d="M21,43.326a1,1,0,0,1-.538-1.844,21.624,21.624,0,0,1,18.889-2.063,1,1,0,0,1-.685,1.879,19.612,19.612,0,0,0-17.13,1.872A1,1,0,0,1,21,43.326Z"/><ellipse class="cls-4" cx="42" cy="28.123" rx="4" ry="6"/><ellipse class="cls-4" cx="22" cy="28.123" rx="4" ry="6"/><path class="cls-5" d="M45,20.225a5.006,5.006,0,0,1-5-5,1,1,0,0,1,2,0,3,3,0,0,0,3,3,1,1,0,0,1,0,2Z"/><path class="cls-5" d="M19,20.225a1,1,0,0,1,0-2,3,3,0,0,0,3-3,1,1,0,0,1,2,0A5.006,5.006,0,0,1,19,20.225Z"/><path class="cls-6" d="M42,35.775c-3.227,0-5,6.76-5,9a5,5,0,1,0,10,0C47,42.535,45.227,35.775,42,35.775Z"/></g></svg>