<?xml version="1.0" ?><svg viewBox="0 0 64 64" xmlns="http://www.w3.org/2000/svg"><defs><style>.cls-1{fill:#fcb316;}.cls-2{fill:#ffcb29;}.cls-3{fill:#ef5451;}.cls-4{fill:#455b64;}.cls-5{fill:#faa629;}.cls-6{fill:#ffe081;}</style></defs><g id="Icon"><path class="cls-1" d="M60,32A28.02,28.02,0,0,1,34,59.92c-.66.06-1.33.08-2,.08A28,28,0,0,1,32,4c.67,0,1.34.02,2,.08A28.02,28.02,0,0,1,60,32Z"/><ellipse class="cls-2" cx="34" cy="32" rx="26" ry="27.92"/><path class="cls-3" d="M23.407,44.287a1,1,0,0,1-.42-1.908,21.451,21.451,0,0,1,18.024,0,1,1,0,1,1-.839,1.816,19.448,19.448,0,0,0-16.346,0A1,1,0,0,1,23.407,44.287Z"/><path class="cls-4" d="M45,31.4a1,1,0,0,1-1-1c0-2.289-1.056-4-2-4s-2,1.711-2,4a1,1,0,0,1-2,0c0-3.364,1.757-6,4-6s4,2.636,4,6A1,1,0,0,1,45,31.4Z"/><path class="cls-4" d="M25,31.4a1,1,0,0,1-1-1c0-2.289-1.056-4-2-4s-2,1.711-2,4a1,1,0,0,1-2,0c0-3.364,1.757-6,4-6s4,2.636,4,6A1,1,0,0,1,25,31.4Z"/><path class="cls-5" d="M41.707,18.691a1,1,0,0,0-1.414,0l-3,3a1,1,0,0,0,1.414,1.414l3-3A1,1,0,0,0,41.707,18.691Z"/><path class="cls-5" d="M26.707,21.691l-3-3a1,1,0,0,0-1.414,1.414l3,3a1,1,0,0,0,1.414-1.414Z"/><path class="cls-6" d="M56.326,48.741a4,4,0,0,0-.427-5.155,4.093,4.093,0,0,0-5.543-.109L38.873,33.635a1,1,0,0,0-1.358.052l-2.828,2.828a1,1,0,0,0-.053,1.357l9.843,11.484a4,4,0,0,0,.109,5.543,4.092,4.092,0,0,0,5.154.428,4.7,4.7,0,0,0,6.586-6.586Z"/><path class="cls-6" d="M29.313,36.515l-2.828-2.828a1,1,0,0,0-1.358-.052L13.644,43.477a4.091,4.091,0,0,0-5.543.109,4,4,0,0,0-.428,5.153,4.7,4.7,0,0,0,6.588,6.588,4.092,4.092,0,0,0,5.153-.428,4,4,0,0,0,.109-5.543l9.843-11.484A1,1,0,0,0,29.313,36.515Z"/></g></svg>