<?xml version="1.0" ?><svg viewBox="0 0 64 64" xmlns="http://www.w3.org/2000/svg"><defs><style>.cls-1{fill:#fcb316;}.cls-2{fill:#ffcb29;}.cls-3{fill:#ef5451;}.cls-4{fill:#fff;}.cls-5{fill:#455b64;}.cls-6{fill:#3d82c4;}</style></defs><g id="Icon"><path class="cls-1" d="M60,32A28.02,28.02,0,0,1,34,59.92c-.66.06-1.33.08-2,.08A28,28,0,0,1,32,4c.67,0,1.34.02,2,.08A28.02,28.02,0,0,1,60,32Z"/><ellipse class="cls-2" cx="34" cy="32" rx="26" ry="27.92"/><path class="cls-3" d="M43,36.69c0,5.6-4.01,8.81-11,8.81s-11-3.21-11-8.81a5.308,5.308,0,0,1,1.31-4c1.487-1.433,3.79-1.248,6.47-1.06a46.138,46.138,0,0,0,6.44,0c2.681-.188,4.983-.373,6.47,1.06A5.308,5.308,0,0,1,43,36.69Z"/><path class="cls-4" d="M41.69,32.69c-.87,3.37-3.42,5.81-6.42,5.81H28.73c-3,0-5.55-2.44-6.42-5.81,1.487-1.433,3.79-1.248,6.47-1.06a46.138,46.138,0,0,0,6.44,0C37.9,31.442,40.2,31.257,41.69,32.69Z"/><path class="cls-5" d="M42,18.5c-2.243,0-4,2.636-4,6a1,1,0,0,0,2,0c0-2.29,1.056-4,2-4s2,1.71,2,4a1,1,0,0,0,2,0C46,21.136,44.243,18.5,42,18.5Z"/><path class="cls-5" d="M22,18.5c-2.243,0-4,2.636-4,6a1,1,0,0,0,2,0c0-2.29,1.056-4,2-4s2,1.71,2,4a1,1,0,0,0,2,0C26,21.136,24.243,18.5,22,18.5Z"/><path class="cls-6" d="M17.534,25.458c-1.219-.715-3-.239-5.148,1.373A15.617,15.617,0,0,0,8.674,30.7a5,5,0,0,0,8.632,5.049C18.437,33.817,20.319,27.086,17.534,25.458Z"/><path class="cls-6" d="M55.326,30.7c-1.131-1.934-6.075-6.87-8.86-5.244-1.221.713-1.68,2.5-1.327,5.16a15.631,15.631,0,0,0,1.554,5.133h0A5,5,0,0,0,55.326,30.7Z"/></g></svg>