<svg viewBox="0 0 32 32" xml:space="preserve" xmlns="http://www.w3.org/2000/svg" enable-background="new 0 0 32 32">
<path
  d="M19.5 7c-4.1-4.1-10.9-3.9-14.7.5-3.6 4.2-3 10.5 1 14.3 3.7 3.5 6.5 4 9 3 2.2-.9 4.6-.4 6.2 1.3l3.1 3.5c.3.4 1 .4 1.3 0l2.5-2.5c.4-.4.4-1 0-1.3l-3.4-3c-1.8-1.6-2.2-4-1.4-6.2.9-2.7.4-5.6-3.6-9.6zM9.8 24.5l12.9-13"
  fill="none"
  stroke="#ffcb00"
  stroke-width="2"
  stroke-linecap="round"
  stroke-linejoin="round"
  stroke-miterlimit="10"
  shape-rendering="geometricPrecision"
  class="stroke-000000"
>
</path>
<circle
  cx="27"
  cy="5"
  r="3"
  fill="none"
  stroke="#ffcb00"
  stroke-width="2"
  stroke-linecap="round"
  stroke-linejoin="round"
  stroke-miterlimit="10"
  shape-rendering="geometricPrecision"
  class="stroke-000000"
>
</circle>
</svg>